<svg width="1080" height="1080" viewBox="0 0 1080 1080" fill="none" xmlns="http://www.w3.org/2000/svg">
<path d="M730 191C777.739 191 823.523 209.964 857.279 243.721C891.036 277.477 910 323.261 910 371C910 418.739 891.036 464.523 857.279 498.279C823.523 532.036 777.739 551 730 551L730 461C753.87 461 776.761 451.518 793.64 434.64C810.518 417.761 820 394.869 820 371C820 347.13 810.518 324.239 793.64 307.36C776.761 290.482 753.869 281 730 281L730 191Z" fill="#1F1F1F"/>
<path d="M595 213.5C595 201.074 605.074 191 617.5 191H685V888.5C685 900.926 674.926 911 662.5 911H617.5C605.074 911 595 900.926 595 888.5V213.5Z" fill="#1F1F1F"/>
<rect x="234" y="191" width="90" height="720" rx="22.5" fill="#1F1F1F"/>
<rect width="180" height="90" rx="22.5" transform="matrix(-1 0 0 1 550 505.667)" fill="#1F1F1F"/>
<path d="M708 169C755.739 169 801.523 187.964 835.279 221.721C869.036 255.477 888 301.261 888 349C888 396.739 869.036 442.523 835.279 476.279C801.523 510.036 755.739 529 708 529L708 439C731.87 439 754.761 429.518 771.64 412.64C788.518 395.761 798 372.869 798 349C798 325.13 788.518 302.239 771.64 285.36C754.761 268.482 731.869 259 708 259L708 169Z" fill="#E0E0E0"/>
<path d="M573 191.5C573 179.074 583.074 169 595.5 169H663V866.5C663 878.926 652.926 889 640.5 889H595.5C583.074 889 573 878.926 573 866.5V191.5Z" fill="#E0E0E0"/>
<rect x="212" y="169" width="90" height="720" rx="22.5" fill="#E0E0E0"/>
<rect width="180" height="90" rx="22.5" transform="matrix(-1 0 0 1 528 483.667)" fill="#E0E0E0"/>
</svg>
