<svg width="1080" height="1080" viewBox="0 0 1080 1080" fill="none" xmlns="http://www.w3.org/2000/svg">
<path d="M719 180C766.739 180 812.523 198.964 846.279 232.721C880.036 266.477 899 312.261 899 360C899 407.739 880.036 453.523 846.279 487.279C812.523 521.036 766.739 540 719 540L719 450C742.87 450 765.761 440.518 782.64 423.64C799.518 406.761 809 383.869 809 360C809 336.13 799.518 313.239 782.64 296.36C765.761 279.482 742.869 270 719 270L719 180Z" fill="#1F1F1F"/>
<path d="M584 202.5C584 190.074 594.074 180 606.5 180H674V877.5C674 889.926 663.926 900 651.5 900H606.5C594.074 900 584 889.926 584 877.5V202.5Z" fill="#1F1F1F"/>
<rect x="223" y="180" width="90" height="720" rx="22.5" fill="#1F1F1F"/>
<rect width="180" height="90" rx="22.5" transform="matrix(-1 0 0 1 539 494.667)" fill="#1F1F1F"/>
</svg>
